<?xml version="1.0" encoding="UTF-8" standalone="no"?>
<!-- Created with Inkscape (http://www.inkscape.org/) -->

<svg
   xmlns:dc="http://purl.org/dc/elements/1.1/"
   xmlns:cc="http://creativecommons.org/ns#"
   xmlns:rdf="http://www.w3.org/1999/02/22-rdf-syntax-ns#"
   xmlns:svg="http://www.w3.org/2000/svg"
   xmlns="http://www.w3.org/2000/svg"
   xmlns:sodipodi="http://sodipodi.sourceforge.net/DTD/sodipodi-0.dtd"
   xmlns:inkscape="http://www.inkscape.org/namespaces/inkscape"
   width="1280pt"
   height="1024pt"
   viewBox="0 0 451.55557 361.24444"
   version="1.1"
   id="svg8"
   inkscape:version="0.92.1 r15371"
   sodipodi:docname="phpmad3.svg">
  <title
     id="title3682">php mad</title>
  <defs
     id="defs2" />
  <sodipodi:namedview
     id="base"
     pagecolor="#262626"
     bordercolor="#666666"
     borderopacity="1.0"
     inkscape:pageopacity="0"
     inkscape:pageshadow="2"
     inkscape:zoom="0.47"
     inkscape:cx="850.64043"
     inkscape:cy="560"
     inkscape:document-units="mm"
     inkscape:current-layer="layer1"
     showgrid="false"
     units="pt"
     showborder="true"
     inkscape:pagecheckerboard="true"
     inkscape:showpageshadow="false"
     inkscape:measure-start="0,0"
     inkscape:measure-end="0,0"
     inkscape:window-width="959"
     inkscape:window-height="672"
     inkscape:window-x="329"
     inkscape:window-y="60"
     inkscape:window-maximized="0" />
  <metadata
     id="metadata5">
    <rdf:RDF>
      <cc:Work
         rdf:about="">
        <dc:format>image/svg+xml</dc:format>
        <dc:type
           rdf:resource="http://purl.org/dc/dcmitype/StillImage" />
        <dc:title>php mad</dc:title>
        <dc:creator>
          <cc:Agent>
            <dc:title></dc:title>
          </cc:Agent>
        </dc:creator>
        <dc:publisher>
          <cc:Agent>
            <dc:title>Carlos Mora</dc:title>
          </cc:Agent>
        </dc:publisher>
        <dc:subject>
          <rdf:Bag>
            <rdf:li>logo phpmad meetup</rdf:li>
          </rdf:Bag>
        </dc:subject>
        <cc:license
           rdf:resource="http://creativecommons.org/licenses/by-nc/4.0/" />
      </cc:Work>
      <cc:License
         rdf:about="http://creativecommons.org/licenses/by-nc/4.0/">
        <cc:permits
           rdf:resource="http://creativecommons.org/ns#Reproduction" />
        <cc:permits
           rdf:resource="http://creativecommons.org/ns#Distribution" />
        <cc:requires
           rdf:resource="http://creativecommons.org/ns#Notice" />
        <cc:requires
           rdf:resource="http://creativecommons.org/ns#Attribution" />
        <cc:prohibits
           rdf:resource="http://creativecommons.org/ns#CommercialUse" />
        <cc:permits
           rdf:resource="http://creativecommons.org/ns#DerivativeWorks" />
      </cc:License>
    </rdf:RDF>
  </metadata>
  <g
     inkscape:label="Capa 1"
     inkscape:groupmode="layer"
     id="layer1"
     transform="translate(0,64.24443)">
    <rect
       id="rect3684"
       width="452.01599"
       height="365.24252"
       x="-0.0084070312"
       y="-64.285095"
       style="fill:#262626;fill-opacity:1;stroke-width:0.26458332" />
    <g
       aria-label="php "
       transform="matrix(0.38899461,0,0,0.41155937,-39.921383,-165.55027)"
       style="font-style:normal;font-weight:normal;font-size:40px;line-height:1.25;font-family:sans-serif;letter-spacing:0px;word-spacing:0px;fill:#000000;fill-opacity:1;stroke:none"
       id="flowRoot4491">
      <path
         d="m 350.37649,831.32346 c 5.24213,0.9793 11.34834,1.55536 16.59046,1.55536 31.85599,0 46.43024,-12.67327 46.43024,-52.65167 0,-40.43924 -14.63186,-52.70927 -49.36813,-52.70927 -14.34384,0 -30.70387,2.9955 -42.28263,10.08101 -0.63366,6.91269 -0.86409,12.9613 -0.86409,20.16202 v 111.52475 h 29.49415 z m 0,-23.61836 v -41.0153 c 0,-4.60846 0.17282,-9.62016 0.63367,-13.76778 3.22592,-1.26732 8.41044,-1.95859 13.0189,-1.95859 19.12511,0 19.81638,14.74707 19.81638,29.26372 0,16.47525 -0.74888,29.03331 -22.17822,29.03331 -3.57156,0 -7.94959,-0.63367 -11.29073,-1.55536 z"
         style="font-style:normal;font-variant:normal;font-weight:800;font-stretch:normal;font-size:192px;font-family:Flexo;-inkscape-font-specification:'Flexo Ultra-Bold';fill:#ffffff;fill-opacity:1"
         id="path4554" />
      <path
         d="m 525.52444,831.49628 v -64 c 0,-21.77498 -3.57155,-39.9784 -41.30333,-39.9784 -7.48874,0 -14.0558,1.03691 -19.98919,2.64987 v -40.90009 h -29.60937 v 142.22862 h 29.60937 v -77.36454 c 4.09,-1.49775 8.69847,-2.30423 13.42214,-2.30423 16.072,0 18.31863,5.35734 18.31863,18.08821 v 61.58056 z"
         style="font-style:normal;font-variant:normal;font-weight:800;font-stretch:normal;font-size:192px;font-family:Flexo;-inkscape-font-specification:'Flexo Ultra-Bold';fill:#ffffff;fill-opacity:1"
         id="path4556" />
      <path
         d="m 579.12649,831.32346 c 5.24213,0.9793 11.34834,1.55536 16.59046,1.55536 31.85599,0 46.43024,-12.67327 46.43024,-52.65167 0,-40.43924 -14.63186,-52.70927 -49.36813,-52.70927 -14.34384,0 -30.70387,2.9955 -42.28263,10.08101 -0.63366,6.91269 -0.86409,12.9613 -0.86409,20.16202 v 111.52475 h 29.49415 z m 0,-23.61836 v -41.0153 c 0,-4.60846 0.17282,-9.62016 0.63367,-13.76778 3.22592,-1.26732 8.41044,-1.95859 13.0189,-1.95859 19.12511,0 19.81638,14.74707 19.81638,29.26372 0,16.47525 -0.74888,29.03331 -22.17822,29.03331 -3.57156,0 -7.94959,-0.63367 -11.29073,-1.55536 z"
         style="font-style:normal;font-variant:normal;font-weight:800;font-stretch:normal;font-size:192px;font-family:Flexo;-inkscape-font-specification:'Flexo Ultra-Bold';fill:#ffffff;fill-opacity:1"
         id="path4558" />
    </g>
    <flowRoot
       xml:space="preserve"
       id="flowRoot4503"
       style="fill:#909ff0;fill-opacity:0;stroke:none;font-family:Flexo;font-style:normal;font-weight:300;font-size:192px;line-height:1.25;letter-spacing:0px;word-spacing:0px;-inkscape-font-specification:'Flexo, Light';font-stretch:normal;font-variant:normal;text-anchor:start;text-align:start;writing-mode:lr;font-variant-ligatures:normal;font-variant-caps:normal;font-variant-numeric:normal;font-feature-settings:normal;"><flowRegion
         id="flowRegion4505"
         style="-inkscape-font-specification:'Flexo, Light';font-family:Flexo;font-weight:300;font-style:normal;font-stretch:normal;font-variant:normal;font-size:192px;text-anchor:start;text-align:start;writing-mode:lr;font-variant-ligatures:normal;font-variant-caps:normal;font-variant-numeric:normal;font-feature-settings:normal;fill:#909ff0;fill-opacity:0;"><rect
           id="rect4507"
           width="414.89362"
           height="219.14894"
           x="970.21277"
           y="758.95038"
           style="-inkscape-font-specification:'Flexo, Light';font-family:Flexo;font-weight:300;font-style:normal;font-stretch:normal;font-variant:normal;font-size:192px;text-anchor:start;text-align:start;writing-mode:lr;font-variant-ligatures:normal;font-variant-caps:normal;font-variant-numeric:normal;font-feature-settings:normal;fill:#909ff0;fill-opacity:0;" /></flowRegion><flowPara
         id="flowPara4511"></flowPara></flowRoot>    <flowRoot
       xml:space="preserve"
       id="flowRoot4521"
       style="fill:#909090;fill-opacity:1;stroke:none;font-family:Flexo;font-style:normal;font-weight:normal;font-size:192px;line-height:1.25;letter-spacing:0px;word-spacing:0px;-inkscape-font-specification:'Flexo, Normal';font-stretch:normal;font-variant:normal;text-anchor:start;text-align:start;writing-mode:lr;font-variant-ligatures:normal;font-variant-caps:normal;font-variant-numeric:normal;font-feature-settings:normal;"><flowRegion
         id="flowRegion4523"
         style="fill:#909090;fill-opacity:1;-inkscape-font-specification:'Flexo, Normal';font-family:Flexo;font-weight:normal;font-style:normal;font-stretch:normal;font-variant:normal;font-size:192px;text-anchor:start;text-align:start;writing-mode:lr;font-variant-ligatures:normal;font-variant-caps:normal;font-variant-numeric:normal;font-feature-settings:normal;"><rect
           id="rect4525"
           width="427.65958"
           height="191.48936"
           x="980.85107"
           y="769.58868"
           style="fill:#909090;fill-opacity:1;-inkscape-font-specification:'Flexo, Normal';font-family:Flexo;font-weight:normal;font-style:normal;font-stretch:normal;font-variant:normal;font-size:192px;text-anchor:start;text-align:start;writing-mode:lr;font-variant-ligatures:normal;font-variant-caps:normal;font-variant-numeric:normal;font-feature-settings:normal;" /></flowRegion><flowPara
         id="flowPara4533">mad</flowPara></flowRoot>    <g
       aria-label="mad"
       transform="matrix(0.40319032,0,0,0.40962011,-168.90119,-94.073385)"
       style="font-style:normal;font-variant:normal;font-weight:300;font-stretch:normal;font-size:192px;line-height:1.25;font-family:Flexo;-inkscape-font-specification:'Flexo, Light';font-variant-ligatures:normal;font-variant-caps:normal;font-variant-numeric:normal;font-feature-settings:normal;text-align:start;letter-spacing:0px;word-spacing:0px;writing-mode:lr-tb;text-anchor:start;fill:#909090;fill-opacity:1;stroke:none"
       id="flowRoot4535">
      <path
         d="m 981.52898,590.45096 c 0,-4.89649 0.11521,-11.86679 0.28803,-17.05131 7.37354,-3.11071 20.45009,-5.53015 27.42039,-5.53015 22.7542,0 27.9964,8.81368 27.9964,29.955 v 64.46084 h 10.7146 v -66.9955 c 0,-7.20072 -0.576,-13.9982 -2.7651,-19.70117 9.9658,-5.24212 22.0631,-7.71917 30.5887,-7.71917 22.6967,0 27.9964,8.81368 27.9964,29.955 v 64.46084 h 10.7147 v -66.9955 c 0,-20.10441 -4.4933,-36.9829 -34.7363,-36.9829 -15.0927,0 -29.0333,3.57156 -39.5752,8.9865 -5.1269,-5.58776 -13.4221,-8.9865 -26.9595,-8.9865 -13.71012,0 -30.87664,3.9748 -41.99455,8.41045 -0.28803,5.41494 -0.40324,11.29072 -0.40324,16.9937 v 78.57425 h 10.71467 z"
         style=""
         id="path4547" />
      <path
         d="m 1147.3512,570.865 c 11.1755,-1.61296 22.063,-3.0531 33.757,-3.0531 24.9433,0 30.4158,6.73987 30.4158,24.59766 v 6.33663 c -16.8785,0.57606 -33.8722,1.20972 -46.8911,3.16832 -17.6849,2.64986 -25.0585,13.94059 -25.0585,31.62556 0,22.69667 13.1341,30.12781 40.4969,30.12781 15.2655,0 29.3213,-2.18902 41.7066,-7.94959 0.2304,-5.41495 0.4032,-11.29073 0.4032,-16.9937 v -49.77138 c 0,-25.28893 -16.7057,-30.64627 -38.2502,-30.64627 -14.3439,0 -25.577,1.61297 -37.559,3.51396 z m 2.9955,62.32943 c 0,-15.0351 5.703,-20.27722 17.7426,-22.58145 11.7516,-2.24663 30.5886,-2.70748 43.4347,-2.9379 v 24.48245 c 0,4.89649 -0.1152,11.86679 -0.288,17.0513 -9.7354,3.62917 -20.45,5.12692 -30.3582,5.12692 -21.775,0 -30.5311,-4.14762 -30.5311,-21.14132 z"
         style=""
         id="path4549" />
      <path
         d="m 1321.5673,562.56977 c -9.9657,-2.59226 -19.9892,-4.26283 -30.7614,-4.26283 -30.3583,0 -42.3403,13.53736 -42.3403,52.65167 0,39.86319 13.4798,52.70927 45.6238,52.70927 12.7309,0 26.5563,-2.18902 37.7894,-7.94959 0.2304,-5.41495 0.4032,-11.29073 0.4032,-16.9937 V 520.05672 h -10.7147 z m 0,9.62016 v 59.85239 c 0,4.95409 -0.1152,11.92439 -0.288,17.0513 -8.0072,3.57156 -18.7219,5.18452 -27.1899,5.18452 -25.9226,0 -34.7939,-12.27003 -34.7939,-43.31953 0,-32.0288 6.7399,-43.20432 35.7156,-43.20432 8.9289,0 19.6436,2.07381 26.5562,4.43564 z"
         style=""
         id="path4551" />
    </g>
    <path
       sodipodi:type="star"
       style="fill:#ff0000;fill-opacity:1;stroke-width:0.26458332"
       id="path4545"
       sodipodi:sides="5"
       sodipodi:cx="252.19859"
       sodipodi:cy="106.7252"
       sodipodi:r1="14.073582"
       sodipodi:r2="7.0367908"
       sodipodi:arg1="0.92729522"
       sodipodi:arg2="1.5556137"
       inkscape:flatsided="false"
       inkscape:rounded="0"
       inkscape:randomized="0"
       d="m 260.64274,117.98406 -8.33731,-4.22288 -8.20527,4.47406 1.43983,-9.2342 -6.79065,-6.42111 9.22718,-1.48417 4.00841,-8.442523 4.26288,8.316933 9.26799,1.20334 -6.59258,6.62432 z"
       inkscape:transform-center-x="0.066028471"
       inkscape:transform-center-y="-1.2809596" />
  </g>
</svg>
