<?xml version="1.0" encoding="UTF-8" standalone="no"?>
<svg width="572px" height="782px" viewBox="0 0 572 782" version="1.1" xmlns="http://www.w3.org/2000/svg" xmlns:xlink="http://www.w3.org/1999/xlink" xmlns:sketch="http://www.bohemiancoding.com/sketch/ns">
    <title>Slice 1</title>
    <description>Created with Sketch (http://www.bohemiancoding.com/sketch)</description>
    <defs></defs>
    <g id="Page 1" stroke="none" stroke-width="1" fill="none" fill-rule="evenodd" sketch:type="MSPage">
        <rect d="M0,396 L0,782 L572,782 L572,396 L0,396 Z M0,396" id="Rectangle 3" fill="#262626" sketch:type="MSShapeGroup" x="0" y="396" width="572" height="386"></rect>
        <g id="Group" sketch:type="MSLayerGroup" transform="translate(143.000000, 142.000000)">
            <path d="M158.886353,24 L161.929114,15.1242289 L171.189124,15.1242289 L163.808041,9.56724961 L166.49036,0.762647331 L158.886353,6.01461728 L151.280899,0.762647331 L153.963218,9.56724961 L146.580687,15.1242289 L155.843592,15.1242289 L158.886353,24" id="Fill 6 copy" fill="#D70014" sketch:type="MSShapeGroup" transform="translate(158.884906, 12.381324) scale(1, -1) translate(-158.884906, -12.381324) "></path>
            <path d="M9.83477589,90.2263319 L0.316132395,90.2263319 L0.316132395,48.1552169 C0.316132395,45.5553165 0.402079515,43.3421782 0.638434094,40.8926853 C4.93579007,38.378732 10.8446545,37.3473666 16.0444553,37.3473666 C28.7861157,37.3473666 34.1578107,41.9670243 34.1578107,57.0077702 C34.1578107,71.8336483 28.9150364,76.646687 17.140281,76.646687 C14.8197088,76.646687 12.1338613,76.3243853 9.83477589,75.8301894 Z M9.83477589,68.2883296 C11.4033108,68.7825256 13.530502,69.126314 15.2064709,69.126314 C24.3383523,69.126314 24.5747069,63.9694869 24.5747069,57.0077702 C24.5747069,50.7551172 24.2094316,44.824766 16.0444553,44.824766 C13.9387508,44.824766 11.5107447,45.1685545 10.0711305,45.8346446 C9.89923623,47.3816928 9.83477589,49.2510426 9.83477589,50.969985 Z M65.9582141,76.1310043 L65.9582141,52.8393349 C65.9582141,47.4031796 64.9698222,45.1040941 58.0081055,45.1040941 C55.8809143,45.1040941 53.667776,45.5338297 51.8413997,46.3073538 L51.8413997,76.1310043 L42.3012694,76.1310043 L42.3012694,23.0801447 L51.8413997,23.0801447 L51.8413997,38.572113 C54.3553529,37.8200757 57.1916079,37.3473666 60.3501645,37.3473666 C74.1231904,37.3473666 75.5198311,43.8793477 75.5198311,51.9154033 L75.5198311,76.1310043 Z M94.1058645,90.2263319 L84.587221,90.2263319 L84.587221,48.1552169 C84.587221,45.5553165 84.6731682,43.3421782 84.9095227,40.8926853 C89.2068787,38.378732 95.1157432,37.3473666 100.315544,37.3473666 C113.057204,37.3473666 118.428899,41.9670243 118.428899,57.0077702 C118.428899,71.8336483 113.186125,76.646687 101.41137,76.646687 C99.0907975,76.646687 96.40495,76.3243853 94.1058645,75.8301894 Z M94.1058645,68.2883296 C95.6743995,68.7825256 97.8015907,69.126314 99.4775595,69.126314 C108.609441,69.126314 108.845796,63.9694869 108.845796,57.0077702 C108.845796,50.7551172 108.48052,44.824766 100.315544,44.824766 C98.2098395,44.824766 95.7818334,45.1685545 94.3422191,45.8346446 C94.1703249,47.3816928 94.1058645,49.2510426 94.1058645,50.969985 Z M94.1058645,68.2883296" id="php copy" fill="#343432" sketch:type="MSShapeGroup"></path>
            <path d="M196.688747,38.6580602 C201.157997,37.9489964 205.34792,37.3473666 210.698128,37.3473666 C218.734183,37.3473666 224.96535,39.3456371 224.96535,48.7783335 L224.96535,67.3429113 C224.96535,69.4701025 224.900889,71.6617541 224.814942,73.6815114 C220.195284,75.8301894 214.95251,76.646687 209.258513,76.646687 C199.052293,76.646687 194.153307,73.8748924 194.153307,65.4091011 C194.153307,58.8126597 196.903615,54.6012508 203.500056,53.612859 C208.356069,52.8823084 214.694669,52.6459539 220.990295,52.4310861 L220.990295,50.0675403 C220.990295,43.4066385 218.949051,40.8926853 209.645276,40.8926853 C205.283459,40.8926853 201.222458,41.4298548 197.054023,42.0314846 Z M135.215118,49.3369898 L135.215118,76.1310043 L131.218577,76.1310043 L131.218577,46.8230365 C131.218577,44.6958453 131.261551,42.5041938 131.368985,40.4844364 C135.515933,38.8299544 141.918994,37.3473666 147.032847,37.3473666 C152.08224,37.3473666 155.176337,38.6150866 157.08866,40.6993042 C161.020741,38.6795469 166.220542,37.3473666 171.850078,37.3473666 C183.130637,37.3473666 184.806606,43.6429931 184.806606,51.1418793 L184.806606,76.1310043 L180.810065,76.1310043 L180.810065,52.0872976 C180.810065,44.2016494 178.833281,40.914172 170.36749,40.914172 C167.187447,40.914172 162.675223,41.8381036 158.95801,43.7934005 C159.774508,45.9205918 159.989375,48.4560318 159.989375,51.1418793 L159.989375,76.1310043 L155.992834,76.1310043 L155.992834,52.0872976 C155.992834,44.2016494 154.037537,40.914172 145.550259,40.914172 C142.950359,40.914172 138.07286,41.8166168 135.322552,42.9769029 C135.258092,44.9107131 135.215118,47.5106135 135.215118,49.3369898 Z M198.171335,65.2801804 C198.171335,71.6187805 201.437326,73.1658287 209.559328,73.1658287 C213.255055,73.1658287 217.251596,72.6071724 220.882861,71.2535052 C220.947322,69.3196951 220.990295,66.7197947 220.990295,64.8934184 L220.990295,55.7615369 C216.198743,55.8474841 209.172566,56.0193783 204.789263,56.8573627 C200.298526,57.7168339 198.171335,59.6721309 198.171335,65.2801804 Z M262.072989,38.9373883 L262.072989,23.0801447 L266.06953,23.0801447 L266.06953,67.3429113 C266.06953,69.4701025 266.00507,71.6617541 265.919123,73.6815114 C261.729201,75.8301894 256.572373,76.646687 251.823795,76.646687 C239.834172,76.646687 234.806265,71.8551351 234.806265,56.9862834 C234.806265,42.3967599 239.275516,37.3473666 250.599049,37.3473666 C254.617076,37.3473666 258.355776,37.9704832 262.072989,38.9373883 Z M262.072989,42.5256805 C259.494575,41.6447226 255.498034,40.8711985 252.167584,40.8711985 C241.359733,40.8711985 238.84578,45.0396338 238.84578,56.9862834 C238.84578,68.5676578 242.154744,73.1443419 251.823795,73.1443419 C254.982352,73.1443419 258.978893,72.542712 261.965555,71.2105317 C262.030016,69.2982083 262.072989,66.6983079 262.072989,64.8504448 Z M262.072989,42.5256805" id="mad" fill="#BFBFBF" sketch:type="MSShapeGroup"></path>
            <path d="M196.688747,38.6580602 C201.157997,37.9489964 205.34792,37.3473666 210.698128,37.3473666 C218.734183,37.3473666 224.96535,39.3456371 224.96535,48.7783335 L224.96535,67.3429113 C224.96535,69.4701025 224.900889,71.6617541 224.814942,73.6815114 C220.195284,75.8301894 214.95251,76.646687 209.258513,76.646687 C199.052293,76.646687 194.153307,73.8748924 194.153307,65.4091011 C194.153307,58.8126597 196.903615,54.6012508 203.500056,53.612859 C208.356069,52.8823084 214.694669,52.6459539 220.990295,52.4310861 L220.990295,50.0675403 C220.990295,43.4066385 218.949051,40.8926853 209.645276,40.8926853 C205.283459,40.8926853 201.222458,41.4298548 197.054023,42.0314846 Z M135.215118,49.3369898 L135.215118,76.1310043 L131.218577,76.1310043 L131.218577,46.8230365 C131.218577,44.6958453 131.261551,42.5041938 131.368985,40.4844364 C135.515933,38.8299544 141.918994,37.3473666 147.032847,37.3473666 C152.08224,37.3473666 155.176337,38.6150866 157.08866,40.6993042 C161.020741,38.6795469 166.220542,37.3473666 171.850078,37.3473666 C183.130637,37.3473666 184.806606,43.6429931 184.806606,51.1418793 L184.806606,76.1310043 L180.810065,76.1310043 L180.810065,52.0872976 C180.810065,44.2016494 178.833281,40.914172 170.36749,40.914172 C167.187447,40.914172 162.675223,41.8381036 158.95801,43.7934005 C159.774508,45.9205918 159.989375,48.4560318 159.989375,51.1418793 L159.989375,76.1310043 L155.992834,76.1310043 L155.992834,52.0872976 C155.992834,44.2016494 154.037537,40.914172 145.550259,40.914172 C142.950359,40.914172 138.07286,41.8166168 135.322552,42.9769029 C135.258092,44.9107131 135.215118,47.5106135 135.215118,49.3369898 Z M198.171335,65.2801804 C198.171335,71.6187805 201.437326,73.1658287 209.559328,73.1658287 C213.255055,73.1658287 217.251596,72.6071724 220.882861,71.2535052 C220.947322,69.3196951 220.990295,66.7197947 220.990295,64.8934184 L220.990295,55.7615369 C216.198743,55.8474841 209.172566,56.0193783 204.789263,56.8573627 C200.298526,57.7168339 198.171335,59.6721309 198.171335,65.2801804 Z M262.072989,38.9373883 L262.072989,23.0801447 L266.06953,23.0801447 L266.06953,67.3429113 C266.06953,69.4701025 266.00507,71.6617541 265.919123,73.6815114 C261.729201,75.8301894 256.572373,76.646687 251.823795,76.646687 C239.834172,76.646687 234.806265,71.8551351 234.806265,56.9862834 C234.806265,42.3967599 239.275516,37.3473666 250.599049,37.3473666 C254.617076,37.3473666 258.355776,37.9704832 262.072989,38.9373883 Z M262.072989,42.5256805 C259.494575,41.6447226 255.498034,40.8711985 252.167584,40.8711985 C241.359733,40.8711985 238.84578,45.0396338 238.84578,56.9862834 C238.84578,68.5676578 242.154744,73.1443419 251.823795,73.1443419 C254.982352,73.1443419 258.978893,72.542712 261.965555,71.2105317 C262.030016,69.2982083 262.072989,66.6983079 262.072989,64.8504448 Z M262.072989,42.5256805" id="mad" opacity="0.7" fill="#B2B2B2" sketch:type="MSShapeGroup"></path>
        </g>
        <g id="Group copy" sketch:type="MSLayerGroup" transform="translate(143.000000, 544.000000)">
            <path d="M158.886353,24 L161.929114,15.1242289 L171.189124,15.1242289 L163.808041,9.56724961 L166.49036,0.762647331 L158.886353,6.01461728 L151.280899,0.762647331 L153.963218,9.56724961 L146.580687,15.1242289 L155.843592,15.1242289 L158.886353,24" id="Fill 6 copy" fill="#D70014" sketch:type="MSShapeGroup" transform="translate(158.884906, 12.381324) scale(1, -1) translate(-158.884906, -12.381324) "></path>
            <path d="M9.83477589,90.2263319 L0.316132395,90.2263319 L0.316132395,48.1552169 C0.316132395,45.5553165 0.402079515,43.3421782 0.638434094,40.8926853 C4.93579007,38.378732 10.8446545,37.3473666 16.0444553,37.3473666 C28.7861157,37.3473666 34.1578107,41.9670243 34.1578107,57.0077702 C34.1578107,71.8336483 28.9150364,76.646687 17.140281,76.646687 C14.8197088,76.646687 12.1338613,76.3243853 9.83477589,75.8301894 Z M9.83477589,68.2883296 C11.4033108,68.7825256 13.530502,69.126314 15.2064709,69.126314 C24.3383523,69.126314 24.5747069,63.9694869 24.5747069,57.0077702 C24.5747069,50.7551172 24.2094316,44.824766 16.0444553,44.824766 C13.9387508,44.824766 11.5107447,45.1685545 10.0711305,45.8346446 C9.89923623,47.3816928 9.83477589,49.2510426 9.83477589,50.969985 Z M65.9582141,76.1310043 L65.9582141,52.8393349 C65.9582141,47.4031796 64.9698222,45.1040941 58.0081055,45.1040941 C55.8809143,45.1040941 53.667776,45.5338297 51.8413997,46.3073538 L51.8413997,76.1310043 L42.3012694,76.1310043 L42.3012694,23.0801447 L51.8413997,23.0801447 L51.8413997,38.572113 C54.3553529,37.8200757 57.1916079,37.3473666 60.3501645,37.3473666 C74.1231904,37.3473666 75.5198311,43.8793477 75.5198311,51.9154033 L75.5198311,76.1310043 Z M94.1058645,90.2263319 L84.587221,90.2263319 L84.587221,48.1552169 C84.587221,45.5553165 84.6731682,43.3421782 84.9095227,40.8926853 C89.2068787,38.378732 95.1157432,37.3473666 100.315544,37.3473666 C113.057204,37.3473666 118.428899,41.9670243 118.428899,57.0077702 C118.428899,71.8336483 113.186125,76.646687 101.41137,76.646687 C99.0907975,76.646687 96.40495,76.3243853 94.1058645,75.8301894 Z M94.1058645,68.2883296 C95.6743995,68.7825256 97.8015907,69.126314 99.4775595,69.126314 C108.609441,69.126314 108.845796,63.9694869 108.845796,57.0077702 C108.845796,50.7551172 108.48052,44.824766 100.315544,44.824766 C98.2098395,44.824766 95.7818334,45.1685545 94.3422191,45.8346446 C94.1703249,47.3816928 94.1058645,49.2510426 94.1058645,50.969985 Z M94.1058645,68.2883296" id="php copy" fill="#FFFFFF" sketch:type="MSShapeGroup"></path>
            <path d="M196.688747,38.6580602 C201.157997,37.9489964 205.34792,37.3473666 210.698128,37.3473666 C218.734183,37.3473666 224.96535,39.3456371 224.96535,48.7783335 L224.96535,67.3429113 C224.96535,69.4701025 224.900889,71.6617541 224.814942,73.6815114 C220.195284,75.8301894 214.95251,76.646687 209.258513,76.646687 C199.052293,76.646687 194.153307,73.8748924 194.153307,65.4091011 C194.153307,58.8126597 196.903615,54.6012508 203.500056,53.612859 C208.356069,52.8823084 214.694669,52.6459539 220.990295,52.4310861 L220.990295,50.0675403 C220.990295,43.4066385 218.949051,40.8926853 209.645276,40.8926853 C205.283459,40.8926853 201.222458,41.4298548 197.054023,42.0314846 Z M135.215118,49.3369898 L135.215118,76.1310043 L131.218577,76.1310043 L131.218577,46.8230365 C131.218577,44.6958453 131.261551,42.5041938 131.368985,40.4844364 C135.515933,38.8299544 141.918994,37.3473666 147.032847,37.3473666 C152.08224,37.3473666 155.176337,38.6150866 157.08866,40.6993042 C161.020741,38.6795469 166.220542,37.3473666 171.850078,37.3473666 C183.130637,37.3473666 184.806606,43.6429931 184.806606,51.1418793 L184.806606,76.1310043 L180.810065,76.1310043 L180.810065,52.0872976 C180.810065,44.2016494 178.833281,40.914172 170.36749,40.914172 C167.187447,40.914172 162.675223,41.8381036 158.95801,43.7934005 C159.774508,45.9205918 159.989375,48.4560318 159.989375,51.1418793 L159.989375,76.1310043 L155.992834,76.1310043 L155.992834,52.0872976 C155.992834,44.2016494 154.037537,40.914172 145.550259,40.914172 C142.950359,40.914172 138.07286,41.8166168 135.322552,42.9769029 C135.258092,44.9107131 135.215118,47.5106135 135.215118,49.3369898 Z M198.171335,65.2801804 C198.171335,71.6187805 201.437326,73.1658287 209.559328,73.1658287 C213.255055,73.1658287 217.251596,72.6071724 220.882861,71.2535052 C220.947322,69.3196951 220.990295,66.7197947 220.990295,64.8934184 L220.990295,55.7615369 C216.198743,55.8474841 209.172566,56.0193783 204.789263,56.8573627 C200.298526,57.7168339 198.171335,59.6721309 198.171335,65.2801804 Z M262.072989,38.9373883 L262.072989,23.0801447 L266.06953,23.0801447 L266.06953,67.3429113 C266.06953,69.4701025 266.00507,71.6617541 265.919123,73.6815114 C261.729201,75.8301894 256.572373,76.646687 251.823795,76.646687 C239.834172,76.646687 234.806265,71.8551351 234.806265,56.9862834 C234.806265,42.3967599 239.275516,37.3473666 250.599049,37.3473666 C254.617076,37.3473666 258.355776,37.9704832 262.072989,38.9373883 Z M262.072989,42.5256805 C259.494575,41.6447226 255.498034,40.8711985 252.167584,40.8711985 C241.359733,40.8711985 238.84578,45.0396338 238.84578,56.9862834 C238.84578,68.5676578 242.154744,73.1443419 251.823795,73.1443419 C254.982352,73.1443419 258.978893,72.542712 261.965555,71.2105317 C262.030016,69.2982083 262.072989,66.6983079 262.072989,64.8504448 Z M262.072989,42.5256805" id="mad" fill="#BFBFBF" sketch:type="MSShapeGroup"></path>
            <path d="M196.688747,38.6580602 C201.157997,37.9489964 205.34792,37.3473666 210.698128,37.3473666 C218.734183,37.3473666 224.96535,39.3456371 224.96535,48.7783335 L224.96535,67.3429113 C224.96535,69.4701025 224.900889,71.6617541 224.814942,73.6815114 C220.195284,75.8301894 214.95251,76.646687 209.258513,76.646687 C199.052293,76.646687 194.153307,73.8748924 194.153307,65.4091011 C194.153307,58.8126597 196.903615,54.6012508 203.500056,53.612859 C208.356069,52.8823084 214.694669,52.6459539 220.990295,52.4310861 L220.990295,50.0675403 C220.990295,43.4066385 218.949051,40.8926853 209.645276,40.8926853 C205.283459,40.8926853 201.222458,41.4298548 197.054023,42.0314846 Z M135.215118,49.3369898 L135.215118,76.1310043 L131.218577,76.1310043 L131.218577,46.8230365 C131.218577,44.6958453 131.261551,42.5041938 131.368985,40.4844364 C135.515933,38.8299544 141.918994,37.3473666 147.032847,37.3473666 C152.08224,37.3473666 155.176337,38.6150866 157.08866,40.6993042 C161.020741,38.6795469 166.220542,37.3473666 171.850078,37.3473666 C183.130637,37.3473666 184.806606,43.6429931 184.806606,51.1418793 L184.806606,76.1310043 L180.810065,76.1310043 L180.810065,52.0872976 C180.810065,44.2016494 178.833281,40.914172 170.36749,40.914172 C167.187447,40.914172 162.675223,41.8381036 158.95801,43.7934005 C159.774508,45.9205918 159.989375,48.4560318 159.989375,51.1418793 L159.989375,76.1310043 L155.992834,76.1310043 L155.992834,52.0872976 C155.992834,44.2016494 154.037537,40.914172 145.550259,40.914172 C142.950359,40.914172 138.07286,41.8166168 135.322552,42.9769029 C135.258092,44.9107131 135.215118,47.5106135 135.215118,49.3369898 Z M198.171335,65.2801804 C198.171335,71.6187805 201.437326,73.1658287 209.559328,73.1658287 C213.255055,73.1658287 217.251596,72.6071724 220.882861,71.2535052 C220.947322,69.3196951 220.990295,66.7197947 220.990295,64.8934184 L220.990295,55.7615369 C216.198743,55.8474841 209.172566,56.0193783 204.789263,56.8573627 C200.298526,57.7168339 198.171335,59.6721309 198.171335,65.2801804 Z M262.072989,38.9373883 L262.072989,23.0801447 L266.06953,23.0801447 L266.06953,67.3429113 C266.06953,69.4701025 266.00507,71.6617541 265.919123,73.6815114 C261.729201,75.8301894 256.572373,76.646687 251.823795,76.646687 C239.834172,76.646687 234.806265,71.8551351 234.806265,56.9862834 C234.806265,42.3967599 239.275516,37.3473666 250.599049,37.3473666 C254.617076,37.3473666 258.355776,37.9704832 262.072989,38.9373883 Z M262.072989,42.5256805 C259.494575,41.6447226 255.498034,40.8711985 252.167584,40.8711985 C241.359733,40.8711985 238.84578,45.0396338 238.84578,56.9862834 C238.84578,68.5676578 242.154744,73.1443419 251.823795,73.1443419 C254.982352,73.1443419 258.978893,72.542712 261.965555,71.2105317 C262.030016,69.2982083 262.072989,66.6983079 262.072989,64.8504448 Z M262.072989,42.5256805" id="mad" opacity="0.7" fill="#4C4C4C" sketch:type="MSShapeGroup"></path>
        </g>
    </g>
</svg>